# xmcd
#
# Track frame offsets:
#	150
#	20407
#	34584
#	51200
#	67218
#	85202
#	101142
#	118597
#	135271
#
# Disc length: 2046 seconds
#
# Revision: 1
# Processed by: cddbd v1.5.2PL0 Copyright (c) Steve Scherf et al.
# Submitted via: audiograbber 1.83.01
#
DISCID=7507fc09
DTITLE=Various Artist - FastTrax Karaoke Country FTX-C406
DYEAR=2011
DGENRE=Country
TTITLE0=Brad Paisley - Alabama - Old Alabama
TTITLE1=Thompson Square - Are You Gonna Kiss Me Or Not
TTITLE2=Lady Antebellum - Just A Kiss
TTITLE3=Zac Brown Band - Keep Me In Mind
TTITLE4=Luke Bryan - Country Girl (Shake It)
TTITLE5=Blake Shelton - Honey Bee
TTITLE6=Jason Aldean - Dirt Road Anthem
TTITLE7=Chris Young - Tomorrow
TTITLE8=Martina McBride - Teenage Daughters
EXTD=
EXTT0=
EXTT1=
EXTT2=
EXTT3=
EXTT4=
EXTT5=
EXTT6=
EXTT7=
EXTT8=
PLAYORDER=
